<svg width="60" height="60" viewBox="0 0 60 60" fill="none" xmlns="http://www.w3.org/2000/svg">
<path d="M12.7017 38.241C9.65603 40.0837 1.67044 43.8465 6.5342 48.555C8.9101 50.855 11.5563 52.5 14.8831 52.5H33.867C37.1938 52.5 39.84 50.855 42.2158 48.555C47.0795 43.8465 39.094 40.0837 36.0483 38.241C28.9063 33.9197 19.8438 33.9197 12.7017 38.241Z" stroke="black" stroke-width="1.5" stroke-linecap="round" stroke-linejoin="round"/>
<path d="M33.75 17.5C33.75 23.0229 29.2728 27.5 23.75 27.5C18.2271 27.5 13.75 23.0229 13.75 17.5C13.75 11.9771 18.2271 7.5 23.75 7.5C29.2728 7.5 33.75 11.9771 33.75 17.5Z" stroke="black" stroke-width="1.5"/>
<path d="M42.5 12.5H55" stroke="black" stroke-width="1.5" stroke-linecap="round" stroke-linejoin="round"/>
<path d="M42.5 20H55" stroke="black" stroke-width="1.5" stroke-linecap="round" stroke-linejoin="round"/>
<path d="M50 27.5H55" stroke="black" stroke-width="1.5" stroke-linecap="round" stroke-linejoin="round"/>
</svg>
