<svg width="60" height="60" viewBox="0 0 60 60" fill="none" xmlns="http://www.w3.org/2000/svg">
<path d="M51.9348 45C53.808 45 55.298 43.8213 56.6358 42.1728C59.3745 38.7985 54.878 36.102 53.163 34.7815C51.4198 33.439 49.4733 32.6785 47.4998 32.5M44.9998 27.5C48.4515 27.5 51.2498 24.7018 51.2498 21.25C51.2498 17.7982 48.4515 15 44.9998 15" stroke="black" stroke-width="1.5" stroke-linecap="round"/>
<path d="M8.06479 45C6.19151 45 4.70156 43.8213 3.36374 42.1728C0.625105 38.7985 5.12156 36.102 6.83649 34.7815C8.57981 33.439 10.5263 32.6785 12.4999 32.5M13.7499 27.5C10.2981 27.5 7.49989 24.7018 7.49989 21.25C7.49989 17.7982 10.2981 15 13.7499 15" stroke="black" stroke-width="1.5" stroke-linecap="round"/>
<path d="M20.2091 37.778C17.6547 39.3575 10.9571 42.5827 15.0364 46.6185C17.0291 48.59 19.2484 50 22.0387 50H37.9607C40.7509 50 42.9702 48.59 44.9629 46.6185C49.0422 42.5827 42.3447 39.3575 39.7902 37.778C33.7999 34.074 26.1992 34.074 20.2091 37.778Z" stroke="black" stroke-width="1.5" stroke-linecap="round" stroke-linejoin="round"/>
<path d="M38.7498 18.75C38.7498 23.5825 34.8323 27.5 29.9998 27.5C25.1673 27.5 21.2498 23.5825 21.2498 18.75C21.2498 13.9175 25.1673 10 29.9998 10C34.8323 10 38.7498 13.9175 38.7498 18.75Z" stroke="black" stroke-width="1.5"/>
</svg>
